#!OML:ASF E:/inclinewalkrobotboard/Project1/Captureday1/Session1/subject1.ASF
:FULLY-SPECIFIED
:DEGREES
338
root 0 0 0 -2.305565370138896 -5.955844205329939 -7.3975124476516285
lowerback 11.789241625211856 2.2987061671528504 6.498165913869009
upperback 1.473945072335471 3.9587054688036494 2.2008292085946106
thorax -4.841216297963605 1.8273849128970139 -1.9040661585995875
lowerneck -17.111630453175255 -3.5543109204804226 -2.1553419788760277
upperneck 21.787371830009867 -4.552629299378632 0.8228670435747577
head 9.823701272174606 -2.1939029093957365 0.02049543956679084
rclavicle -3.1377091819460007E-15 1.8967225560659366E-15
rhumerus -29.76482662379268 -13.92324077238295 -82.47870656547146
rradius 26.129188637427
rwrist 7.730680907890371
rhand -19.23083185503803 29.580527139962435
rfingers 7.125020000000017
rthumb 7.101772003295099 -0.2962476359168207
lclavicle -6.774167818996608E-15 1.305992806005173E-15
lhumerus -30.36918300462671 -0.2962154635743648 86.37530576409864
lradius 24.86065479559435
lwrist 5.5916206319996204
lhand -27.92191170830041 26.411231932270656
lfingers 7.125020000000046
lthumb -1.3105812712368312 56.456730902764534
rfemur 0.32185400278577525 8.425679404899833 35.32744610019249
rtibia 28.625209627249887
rfoot -19.239224768766388 -6.410402412821998
rtoes 3.31695656168089
lfemur -31.281691793315986 -0.32796273442592705 -9.795700096381815
ltibia 36.844049386507265
lfoot -5.13863424601875 2.0259624201074113
ltoes -10.94544092715526
339
root 0 0 0 -2.1594404851081292 -5.984379844994729 -7.079128936331516
lowerback 11.768696762124032 2.4164491561947177 6.394203375763394
upperback 1.5430827796242146 4.062563046005817 1.911971289228919
thorax -4.769701745785211 1.8788091313849098 -2.163584174646991
lowerneck -17.037224623946578 -3.5497739184266885 -2.162739581259814
upperneck 21.563348774709723 -4.5973301613555675 0.8867099013003238
head 9.697450584853058 -2.2037596932517403 0.042985688229397884
rclavicle -3.497474829792933E-15 1.5539106912290775E-15
rhumerus -28.864616144255343 -13.133412725607121 -82.54872399067379
rradius 28.126278381185415
rwrist 8.07973223170729
rhand -19.758873482381222 29.925313143463683
rfingers 7.125020000000011
rthumb 6.593389581321393 -0.02493244701178554
lclavicle -7.193026065583237E-15 8.598116594395565E-16
lhumerus -30.34978781220999 -0.07049616229106051 86.13774180229828
lradius 24.57895114284006
lwrist 5.40898835228859
lhand -27.97749664729423 26.532262777355797
lfingers 7.125020000000046
lthumb -1.367794780539393 56.57828737540686
rfemur 0.2302867494833709 8.174648658677777 35.03482414585907
rtibia 29.87528763903773
rfoot -18.82802365197771 -6.467415461803803
rtoes 1.2047158541437986
lfemur -29.88380171675494 -1.9109153296003474 -11.125569188504404
ltibia 28.647417207306386
lfoot -7.359241792574608 4.189065704526029
ltoes -8.01482528548248
340
root 0 0 0 -2.088117626771062 -5.97857041454467 -6.710982347456241
lowerback 11.773475790886193 2.50250058394395 6.214779971380506
upperback 1.6003675764627194 4.120376382778436 1.6511885896638825
thorax -4.724632480627513 1.909384891787277 -2.3431258327605295
lowerneck -16.910766867518692 -3.5626966559647784 -2.190286992081485
upperneck 21.30551516147749 -4.661560586167133 0.9775998803887833
head 9.543835745988725 -2.223473027974068 0.07490795775666462
rclavicle -3.5213736347105216E-15 1.6777535522697314E-15
rhumerus -28.656732710102673 -13.46520167409502 -82.59049783412765
rradius 28.843370885168035
rwrist 8.74849306650755
rhand -20.112086177969317 29.841756839176384
rfingers 7.125020000000004
rthumb 6.253080427782996 -0.16838062404030296
lclavicle -7.453559048938565E-15 9.139172745067836E-16
lhumerus -30.51466197701926 0.3773633471897273 85.70046514484652
lradius 24.17356936875084
lwrist 5.127518447157788
lhand -28.013733250678015 26.67891455668651
lfingers 7.125020000000046
lthumb -1.4070623924924295 56.71950425118557
rfemur 0.3554480207992343 7.684228749880296 33.33111572786609
rtibia 29.223342403868443
rfoot -17.50221328747474 -6.060801578479747
rtoes -0.39640505475703525
lfemur -27.53615268018783 -2.9503191747414594 -13.034554584889056
ltibia 24.484648527610766
lfoot -8.156866195465362 4.462773434418962
ltoes -3.659015879544377
341
root 0 0 0 -2.1273127168485466 -5.939054522045735 -6.314465041384893
lowerback 11.772316536740576 2.5655386359860444 5.976226837046943
upperback 1.67253787642549 4.147608183474069 1.42553186362634
thorax -4.657228271117014 1.9260282153410826 -2.444812352663359
lowerneck -16.77425134862187 -3.5887615152787786 -2.269370185666154
upperneck 20.842432248262245 -4.734181061718699 1.145717967573931
head 9.316007877556533 -2.247704923374272 0.14067789316852675
rclavicle -3.159126485985279E-15 1.6890429167989506E-15
rhumerus -28.831630736770943 -14.365457880697548 -82.62306607872773
rradius 28.710017865793247
rwrist 9.68116543167277
rhand -20.29387065855976 29.52967685861173
rfingers 7.125019999999998
rthumb 6.077654289528629 -0.519157486348746
lclavicle -7.267923715835635E-15 8.998016056360138E-16
lhumerus -30.85935783396532 0.9772386303940361 85.1708981317018
lradius 23.708053118845697
lwrist 4.769583096574721
lhand -28.0003060883118 26.78338620537406
lfingers 7.125020000000046
lthumb -1.3960265547005264 56.81373090499137
rfemur 0.7253083154138862 6.956601033345555 30.525855976115444
rtibia 27.469567879021824
rfoot -15.337196905976073 -5.211562700186273
rtoes -1.367797257936587
lfemur -25.273423711061366 -3.512893394487975 -14.536114118589149
ltibia 22.542051966236365
lfoot -8.540303133663166 4.188382405804697
ltoes -0.8309431106639877
